# Blender 3.6.5
# www.blender.org
mtllib bread 1.mtl
o retop
v -0.455770 0.638132 1.178153
v -0.259616 0.892348 1.079726
v -0.596961 0.789238 0.745325
v -0.601810 0.614029 1.001416
v -0.173050 0.654941 1.445674
v 0.006752 0.838009 1.412171
v 0.316675 0.548026 1.948322
v 0.114074 0.622889 1.730148
v 0.253810 0.734240 1.735080
v 0.422023 0.577328 2.000513
v 0.323103 0.534270 2.112859
v 0.005210 0.633192 2.021294
v -0.325877 0.669410 1.692654
v -0.638788 0.639573 1.219525
v -0.696760 0.602973 0.926009
v -0.695434 0.638209 0.874827
v -0.324326 0.870463 0.285730
v -0.283887 1.037424 -0.015538
v -0.570625 0.961737 -0.301465
v -0.618993 0.820041 -0.067041
v 0.210119 0.776773 0.957710
v 0.238384 0.982479 0.567224
v 0.574899 0.586369 1.335875
v 0.513372 0.644072 1.266894
v 0.584332 0.745517 1.084218
v 0.759690 0.485461 1.429728
v 0.599269 0.631544 1.707435
v 0.391235 0.813719 1.411286
v -0.000042 0.962249 0.960358
v -0.594138 0.846801 0.380618
v -0.735125 0.800826 -0.194092
v -0.680974 0.891162 -0.310042
v 0.713675 0.550977 1.654281
v -0.395346 0.766891 -1.135545
v -0.029974 0.958260 -1.151123
v -0.309813 0.892790 -1.546392
v -0.572610 0.706357 -1.299352
v -0.062822 0.852490 -0.810645
v 0.146096 0.958312 -0.816810
v 0.589612 0.650766 0.213660
v 0.463840 0.738574 0.001337
v 0.505862 0.802379 -0.095656
v 0.791113 0.537314 0.502779
v 0.657046 0.692688 0.681538
v 0.369790 0.889239 0.184931
v -0.197927 1.081297 -0.512767
v -0.647921 0.781991 -1.249761
v -0.695320 0.689277 -1.383279
v -0.594110 0.794171 -1.571513
v 0.791392 0.537902 0.508168
v -0.082558 0.696963 -2.049917
v 0.118744 0.735432 -2.388119
v -0.226564 0.613116 -2.795158
v -0.380285 0.583891 -2.509632
v -0.009164 0.709387 -1.971279
v 0.219895 0.748136 -2.114517
v 0.441845 0.725556 -1.366036
v 0.286266 0.734617 -1.601870
v 0.493030 0.759452 -1.546342
v 0.572487 0.733925 -1.283486
v 0.380207 0.910190 -1.127065
v 0.097380 0.907535 -1.589602
v -0.156833 0.841144 -1.964715
v -0.473316 0.602359 -2.496691
v -0.464862 0.535957 -2.685862
v -0.392915 0.555004 -2.766620
v 0.565700 0.784084 -1.212870
v 0.049349 0.951998 -1.427377
v -0.192710 0.898747 -1.737736
v -0.564086 0.742405 -1.936310
v 0.325336 0.946541 -1.029496
v 0.618859 0.801938 -0.308107
v 0.661529 0.755225 -0.746255
v 0.651757 0.725744 -0.043860
v 0.851830 0.389929 -0.425441
v 0.697588 0.708157 -1.074701
v 0.800906 0.524632 -1.176617
v 0.505558 0.667165 -1.933705
v 0.472913 0.632946 -2.150858
v 0.306879 0.597124 -2.682341
v -0.038732 0.498229 -3.032186
v -0.396472 0.368644 -2.976828
v -0.760030 0.357517 -2.471841
v -0.906088 0.363532 -1.692379
v -0.930520 0.393911 -1.293811
v -0.695437 0.883150 -0.522670
v -0.567281 0.964017 -0.342303
v -0.967462 0.137354 -0.144884
v -0.911196 0.490172 0.159464
v -0.882482 0.436685 0.541216
v -0.275359 0.933340 0.924516
v -0.554098 0.871326 0.578574
v -0.860484 0.154734 1.067582
v -0.647639 0.474713 1.625379
v -0.505568 0.460581 1.911773
v -0.226731 0.409018 2.226037
v 0.282332 0.361576 2.271204
v 0.618409 0.374304 1.986076
v 0.130783 0.234088 -3.138436
v -0.137436 -0.150997 -3.167995
v 0.480247 0.247372 -2.861384
v 0.712942 0.296634 -2.117893
v -0.871928 -0.063046 -1.528787
v -0.692538 -0.179191 -2.394302
v 0.387633 -0.216603 -2.709904
v -0.513052 -0.524757 -1.236592
v -0.425380 -0.499232 -2.379363
v -0.156314 -0.426031 -2.823254
v 0.031089 -0.555028 -2.522200
v 0.722651 -0.108440 -1.677214
v 0.672762 -0.300077 0.707685
v 0.771845 -0.268033 -0.426242
v 0.663288 -0.204239 1.547866
v 0.112570 -0.012302 2.161819
v -0.235297 0.031630 2.133666
v -0.387846 -0.190563 1.907022
v -0.480623 -0.503425 0.005899
v -0.488610 -0.334600 1.187356
v 0.058530 -0.446248 1.178350
v 0.206328 -0.587315 0.391150
v 0.214712 -0.621519 -1.230413
vn -0.6265 0.6487 0.4320
vn -0.5507 0.6348 0.5421
vn -0.4867 0.5819 0.6516
vn -0.5180 0.6171 0.5923
vn 0.2784 0.9579 0.0702
vn 0.1046 0.9945 0.0065
vn -0.0051 0.9983 -0.0573
vn -0.0192 0.9926 -0.1195
vn -0.4749 0.7305 0.4908
vn -0.3085 0.9468 0.0912
vn -0.5473 0.7614 0.3473
vn -0.7937 0.5932 -0.1344
vn 0.1818 0.8280 0.5304
vn -0.0816 0.8842 0.4599
vn 0.7506 0.6485 -0.1270
vn 0.6272 0.7151 -0.3087
vn -0.1148 0.9902 -0.0795
vn -0.1059 0.9929 -0.0535
vn -0.5217 0.7735 0.3599
vn 0.5273 0.8386 -0.1366
vn -0.4571 0.8726 0.1722
vn -0.4443 0.8668 0.2264
vn -0.2039 0.8561 0.4748
vn -0.4087 0.8291 0.3814
vn 0.7351 0.6580 -0.1634
vn 0.6085 0.7383 -0.2911
vn 0.2797 0.8185 -0.5019
vn 0.3206 0.7216 -0.6136
vn -0.3358 0.8883 0.3132
vn 0.6835 0.7210 -0.1140
vn -0.2786 0.9590 -0.0518
vn -0.1637 0.9864 0.0147
vn -0.1550 0.9780 0.1398
vn -0.1397 0.9892 0.0442
vn 0.6120 0.6952 -0.3770
vn 0.5645 0.6575 -0.4990
vn 0.5244 0.6169 -0.5869
vn 0.1411 0.9363 -0.3217
vn -0.3420 0.9355 -0.0884
vn 0.2879 0.7936 -0.5360
vn 0.0890 0.9687 -0.2318
vn -0.1419 0.9879 -0.0631
vn -0.2446 0.9306 -0.2722
vn -0.3099 0.9375 -0.1585
vn 0.2888 0.9389 -0.1874
vn 0.0403 0.9990 -0.0214
vn 0.2060 0.9726 0.1075
vn 0.5197 0.8534 -0.0404
vn 0.3962 0.8944 0.2073
vn 0.8740 0.4847 0.0334
vn 0.5429 0.8378 -0.0578
vn 0.7164 0.6005 -0.3551
vn 0.7032 0.6965 -0.1432
vn 0.3821 0.9023 -0.1996
vn -0.3715 0.8323 0.4114
vn 0.1050 0.9250 -0.3652
vn -0.3517 0.7034 -0.6177
vn -0.6816 0.5536 -0.4785
vn -0.6373 0.7178 -0.2804
vn -0.7802 0.6071 -0.1509
vn -0.7925 0.6025 -0.0945
vn -0.2304 0.2323 -0.9450
vn -0.7954 -0.1841 -0.5774
vn -0.5389 0.8423 0.0029
vn 0.6076 0.6939 -0.3865
vn -0.9295 0.3652 0.0517
vn -0.9336 0.2904 -0.2098
vn -0.7822 0.6062 0.1438
vn -0.0909 0.9904 -0.1043
vn -0.5145 0.8143 0.2686
vn -0.1348 0.9546 0.2658
vn -0.7984 0.5957 0.0877
vn -0.8807 0.4012 0.2517
vn -0.9165 0.3773 0.1333
vn -0.5389 0.7848 0.3060
vn -0.3712 0.8057 0.4616
vn -0.0024 0.6757 0.7371
vn 0.5539 0.4878 0.6747
vn 0.0614 0.9630 0.2625
vn 0.2928 0.8928 0.3422
vn 0.6421 0.5848 0.4957
vn -0.2833 0.9586 0.0303
vn 0.2604 0.9548 -0.1434
vn 0.5700 0.8216 -0.0049
vn 0.1850 0.9756 0.1181
vn 0.7874 0.6133 0.0620
vn -0.9088 -0.4070 0.0914
vn 0.8768 0.4802 0.0267
vn -0.3629 0.9190 -0.1541
vn 0.4932 0.5775 -0.6505
vn 0.7934 0.5384 -0.2841
vn 0.8051 0.5548 -0.2096
vn -0.9927 0.0838 0.0864
vn -0.9936 -0.1000 -0.0533
vn -0.9722 -0.1484 -0.1810
vn 0.5891 -0.3546 -0.7261
vn -0.7640 -0.6411 -0.0723
vn -0.6567 -0.5716 -0.4920
vn 0.3968 -0.7280 -0.5591
vn 0.9232 -0.2727 -0.2709
vn 0.9951 -0.0610 -0.0784
vn 0.9892 -0.1204 0.0831
vn 0.9912 -0.1204 -0.0543
vn 0.9906 -0.1339 0.0264
vn 0.9691 -0.0966 0.2268
vn 0.5843 -0.4607 0.6681
vn -0.1078 -0.2341 0.9662
vn -0.7520 -0.1407 0.6440
vn -0.8869 -0.1634 0.4321
vn -0.7994 -0.6000 0.0312
vn -0.8029 -0.5908 0.0790
vn -0.8016 -0.5546 0.2232
vn -0.1429 -0.6570 0.7402
vn 0.1232 -0.9104 0.3949
vn 0.3099 -0.9442 0.1112
vn -0.1917 -0.9569 0.2183
vn -0.1956 -0.9710 0.1374
vn 0.3904 -0.8907 0.2329
vn -0.1319 -0.9910 0.0205
vn 0.5141 -0.8575 0.0207
vn 0.6506 -0.7497 -0.1212
vn 0.6454 -0.7526 -0.1305
vn -0.1315 -0.9908 -0.0322
vn -0.2015 -0.9395 -0.2771
vn 0.3832 0.9058 -0.1808
vn -0.6270 0.6500 0.4294
vn -0.5474 0.6370 0.5427
vn -0.4851 0.5828 0.6519
vn -0.5146 0.6195 0.5928
vn 0.2782 0.9580 0.0692
vn 0.1048 0.9945 0.0040
vn -0.0035 0.9982 -0.0606
vn -0.0205 0.9926 -0.1197
vn -0.4748 0.7306 0.4907
vn -0.5472 0.7611 0.3483
vn -0.7945 0.5933 -0.1299
vn 0.1827 0.8278 0.5304
vn -0.0815 0.8844 0.4595
vn 0.7503 0.6486 -0.1281
vn 0.6276 0.7147 -0.3088
vn -0.1058 0.9930 -0.0535
vn -0.5226 0.7735 0.3586
vn 0.5272 0.8387 -0.1365
vn -0.4510 0.8753 0.1743
vn -0.4345 0.8711 0.2287
vn -0.1968 0.8583 0.4740
vn -0.3963 0.8365 0.3786
vn 0.7350 0.6577 -0.1649
vn 0.6092 0.7370 -0.2928
vn 0.2758 0.8201 -0.5014
vn 0.3198 0.7213 -0.6144
vn -0.3377 0.8877 0.3131
vn 0.6487 0.7440 -0.1602
vn -0.2776 0.9591 -0.0561
vn -0.1668 0.9860 -0.0001
vn -0.1517 0.9783 0.1409
vn -0.1305 0.9905 0.0430
vn 0.6123 0.6942 -0.3784
vn 0.5675 0.6553 -0.4986
vn 0.5230 0.6169 -0.5881
vn 0.1410 0.9361 -0.3223
vn -0.3461 0.9341 -0.0880
vn 0.2900 0.7921 -0.5372
vn 0.0921 0.9669 -0.2378
vn -0.1439 0.9879 -0.0573
vn -0.2446 0.9299 -0.2747
vn -0.3107 0.9368 -0.1610
vn 0.2791 0.9440 -0.1761
vn 0.0371 0.9992 -0.0120
vn 0.1992 0.9733 0.1140
vn 0.5137 0.8574 -0.0306
vn 0.3957 0.8944 0.2086
vn 0.8738 0.4852 0.0311
vn 0.5431 0.8375 -0.0604
vn 0.7176 0.5985 -0.3561
vn 0.7045 0.6946 -0.1455
vn 0.3835 0.9011 -0.2023
vn -0.3715 0.8322 0.4115
vn 0.1053 0.9242 -0.3671
vn -0.3505 0.7032 -0.6186
vn -0.6829 0.5523 -0.4781
vn -0.6370 0.7173 -0.2824
vn -0.7801 0.6073 -0.1504
vn -0.7939 0.6010 -0.0920
vn -0.2302 0.2329 -0.9449
vn -0.7959 -0.1834 -0.5770
vn -0.5385 0.8426 0.0049
vn -0.9300 0.3643 0.0495
vn -0.9309 0.3122 -0.1898
vn -0.7821 0.6064 0.1434
vn -0.0904 0.9904 -0.1046
vn -0.5141 0.8150 0.2674
vn -0.1354 0.9548 0.2646
vn -0.7984 0.5958 0.0877
vn -0.7984 0.5957 0.0880
vn -0.8811 0.3999 0.2525
vn -0.9164 0.3771 0.1340
vn -0.5389 0.7845 0.3069
vn -0.3713 0.8050 0.4627
vn -0.0019 0.6761 0.7368
vn 0.0614 0.9626 0.2638
vn 0.2928 0.8924 0.3433
vn 0.6414 0.5852 0.4962
vn -0.2879 0.9570 0.0347
vn 0.5700 0.8217 -0.0045
vn 0.7869 0.6140 0.0615
vn 0.8431 0.5370 -0.0305
vn 0.8776 0.4786 0.0278
vn -0.3631 0.9193 -0.1516
vn 0.4933 0.5781 -0.6500
vn 0.7933 0.5386 -0.2840
vn 0.8056 0.5545 -0.2085
vn -0.9936 -0.0995 -0.0542
vn -0.9722 -0.1475 -0.1817
vn -0.7645 -0.6404 -0.0730
vn -0.6568 -0.5712 -0.4923
vn 0.3968 -0.7281 -0.5590
vn 0.9232 -0.2726 -0.2709
vn 0.9951 -0.0612 -0.0782
vn 0.9893 -0.1203 0.0830
vn 0.9906 -0.1339 0.0265
vn 0.9691 -0.0967 0.2268
vn -0.1075 -0.2339 0.9663
vn -0.7519 -0.1406 0.6441
vn -0.8870 -0.1635 0.4319
vn -0.7988 -0.6007 0.0318
vn -0.8026 -0.5912 0.0793
vn 0.1230 -0.9104 0.3950
vn -0.1959 -0.9710 0.1372
vn -0.1324 -0.9910 0.0202
vn 0.5140 -0.8575 0.0207
vn 0.6455 -0.7525 -0.1306
vn -0.1312 -0.9908 -0.0323
vn 0.3852 0.9042 -0.1844
vt 0.000000 0.000000
s 0
usemtl bread_1
f 47/1/12 85/1/12 86/1/12
f 69/1/41 62/1/41 63/1/41
f 68/1/42 36/1/42 35/1/42
f 70/1/43 63/1/43 64/1/43
f 49/1/44 69/1/44 70/1/44
f 61/1/45 68/1/45 71/1/45
f 71/1/46 35/1/46 39/1/46
f 72/1/47 39/1/47 42/1/47
f 73/1/48 71/1/48 72/1/48
f 74/1/49 42/1/49 43/1/49
f 72/1/50 75/1/50 73/1/50
f 61/1/51 76/1/51 67/1/51
f 60/1/52 76/1/52 77/1/52
f 59/1/53 77/1/53 78/1/53
f 56/1/54 78/1/54 79/1/54
f 53/1/56 80/1/56 81/1/56
f 53/1/57 82/1/57 66/1/57
f 65/1/58 82/1/58 83/1/58
f 83/1/59 64/1/59 65/1/59
f 84/1/60 70/1/60 83/1/60
f 48/1/61 84/1/61 85/1/61
f 99/1/62 82/1/62 81/1/62
f 104/1/63 82/1/63 100/1/63
f 87/1/64 32/1/64 19/1/64
f 88/1/66 86/1/66 85/1/66
f 32/1/67 89/1/67 31/1/67
f 30/1/68 89/1/68 90/1/68
f 91/1/69 30/1/69 92/1/69
f 3/1/70 91/1/70 92/1/70
f 2/1/71 29/1/71 91/1/71
f 92/1/72 30/1/72 90/1/72
f 15/1/73 90/1/73 93/1/73
f 14/1/74 93/1/74 94/1/74
f 13/1/75 94/1/75 95/1/75
f 12/1/76 95/1/76 96/1/76
f 97/1/77 12/1/77 96/1/77
f 11/1/78 98/1/78 10/1/78
f 28/1/79 6/1/79 9/1/79
f 27/1/80 9/1/80 10/1/80
f 27/1/81 98/1/81 33/1/81
f 18/1/82 87/1/82 19/1/82
f 22/1/83 45/1/83 18/1/83
f 44/1/84 22/1/84 25/1/84
f 45/1/85 46/1/85 18/1/85
f 50/1/86 25/1/86 26/1/86
f 50/1/87 74/1/87 43/1/87
f 77/1/88 73/1/88 75/1/88
f 46/1/89 86/1/89 87/1/89
f 101/1/90 81/1/90 80/1/90
f 102/1/91 80/1/91 79/1/91
f 102/1/92 78/1/92 77/1/92
f 88/1/93 90/1/93 89/1/93
f 103/1/94 85/1/94 84/1/94
f 104/1/95 84/1/95 83/1/95
f 99/1/96 105/1/96 100/1/96
f 107/1/97 103/1/97 104/1/97
f 108/1/98 104/1/98 100/1/98
f 105/1/99 108/1/99 100/1/99
f 102/1/100 105/1/100 101/1/100
f 110/1/101 77/1/101 75/1/101
f 50/1/102 112/1/102 75/1/102
f 110/1/103 75/1/103 112/1/103
f 111/1/104 26/1/104 113/1/104
f 26/1/105 98/1/105 113/1/105
f 114/1/106 98/1/106 97/1/106
f 114/1/107 96/1/107 115/1/107
f 115/1/108 95/1/108 116/1/108
f 116/1/109 94/1/109 93/1/109
f 88/1/110 106/1/110 117/1/110
f 93/1/111 117/1/111 118/1/111
f 116/1/112 93/1/112 118/1/112
f 115/1/113 116/1/113 114/1/113
f 119/1/114 114/1/114 116/1/114
f 113/1/115 119/1/115 111/1/115
f 118/1/116 119/1/116 116/1/116
f 120/1/117 118/1/117 117/1/117
f 119/1/118 120/1/118 111/1/118
f 121/1/119 117/1/119 106/1/119
f 112/1/120 120/1/120 121/1/120
f 112/1/121 121/1/121 110/1/121
f 109/1/122 110/1/122 121/1/122
f 107/1/123 121/1/123 106/1/123
f 108/1/124 109/1/124 107/1/124
f 52/1/125 79/1/125 80/1/125
f 47/1/136 48/1/136 85/1/136
f 69/1/164 68/1/164 62/1/164
f 68/1/165 69/1/165 36/1/165
f 70/1/166 69/1/166 63/1/166
f 49/1/167 36/1/167 69/1/167
f 61/1/168 62/1/168 68/1/168
f 71/1/169 68/1/169 35/1/169
f 72/1/170 71/1/170 39/1/170
f 73/1/171 61/1/171 71/1/171
f 74/1/172 72/1/172 42/1/172
f 72/1/173 74/1/173 75/1/173
f 61/1/174 73/1/174 76/1/174
f 60/1/175 67/1/175 76/1/175
f 59/1/176 60/1/176 77/1/176
f 56/1/177 59/1/177 78/1/177
f 53/1/179 52/1/179 80/1/179
f 53/1/180 81/1/180 82/1/180
f 65/1/181 66/1/181 82/1/181
f 83/1/182 70/1/182 64/1/182
f 84/1/183 49/1/183 70/1/183
f 48/1/184 49/1/184 84/1/184
f 99/1/185 100/1/185 82/1/185
f 104/1/186 83/1/186 82/1/186
f 87/1/187 86/1/187 32/1/187
f 88/1/188 32/1/188 86/1/188
f 32/1/189 88/1/189 89/1/189
f 30/1/190 31/1/190 89/1/190
f 91/1/191 29/1/191 30/1/191
f 3/1/192 2/1/192 91/1/192
f 2/1/193 6/1/193 29/1/193
f 90/1/194 16/1/194 3/1/194
f 3/1/195 92/1/195 90/1/195
f 15/1/196 16/1/196 90/1/196
f 14/1/197 15/1/197 93/1/197
f 13/1/198 14/1/198 94/1/198
f 12/1/199 13/1/199 95/1/199
f 97/1/200 11/1/200 12/1/200
f 11/1/78 97/1/78 98/1/78
f 28/1/201 29/1/201 6/1/201
f 27/1/202 28/1/202 9/1/202
f 27/1/203 10/1/203 98/1/203
f 18/1/204 46/1/204 87/1/204
f 44/1/205 45/1/205 22/1/205
f 50/1/206 44/1/206 25/1/206
f 50/1/207 75/1/207 74/1/207
f 77/1/208 76/1/208 73/1/208
f 46/1/209 47/1/209 86/1/209
f 101/1/210 99/1/210 81/1/210
f 102/1/211 101/1/211 80/1/211
f 102/1/212 79/1/212 78/1/212
f 88/1/93 93/1/93 90/1/93
f 103/1/213 88/1/213 85/1/213
f 104/1/214 103/1/214 84/1/214
f 99/1/96 101/1/96 105/1/96
f 107/1/215 106/1/215 103/1/215
f 108/1/216 107/1/216 104/1/216
f 105/1/217 109/1/217 108/1/217
f 102/1/218 110/1/218 105/1/218
f 110/1/219 102/1/219 77/1/219
f 50/1/220 111/1/220 112/1/220
f 111/1/221 50/1/221 26/1/221
f 26/1/222 33/1/222 98/1/222
f 114/1/106 113/1/106 98/1/106
f 114/1/223 97/1/223 96/1/223
f 115/1/224 96/1/224 95/1/224
f 116/1/225 95/1/225 94/1/225
f 88/1/226 103/1/226 106/1/226
f 93/1/227 88/1/227 117/1/227
f 119/1/228 113/1/228 114/1/228
f 120/1/229 119/1/229 118/1/229
f 121/1/230 120/1/230 117/1/230
f 112/1/231 111/1/231 120/1/231
f 109/1/232 105/1/232 110/1/232
f 107/1/233 109/1/233 121/1/233
f 52/1/234 56/1/234 79/1/234
usemtl bread_2
f 4/1/1 2/1/1 3/1/1
f 5/1/2 2/1/2 1/1/2
f 7/1/3 9/1/3 8/1/3
f 8/1/4 6/1/4 5/1/4
f 12/1/5 7/1/5 8/1/5
f 13/1/6 8/1/6 5/1/6
f 14/1/7 5/1/7 1/1/7
f 4/1/8 14/1/8 1/1/8
f 16/1/9 4/1/9 3/1/9
f 10/1/10 7/1/10 11/1/10
f 20/1/11 18/1/11 19/1/11
f 23/1/13 25/1/13 24/1/13
f 21/1/14 25/1/14 22/1/14
f 28/1/15 23/1/15 24/1/15
f 28/1/16 21/1/16 29/1/16
f 17/1/17 30/1/17 29/1/17
f 20/1/18 30/1/18 17/1/18
f 19/1/19 31/1/19 20/1/19
f 23/1/20 33/1/20 26/1/20
f 34/1/21 36/1/21 37/1/21
f 38/1/22 35/1/22 34/1/22
f 40/1/23 42/1/23 41/1/23
f 41/1/24 39/1/24 38/1/24
f 45/1/25 40/1/25 41/1/25
f 46/1/26 41/1/26 38/1/26
f 34/1/27 46/1/27 38/1/27
f 37/1/28 47/1/28 34/1/28
f 49/1/29 37/1/29 36/1/29
f 43/1/30 44/1/30 50/1/30
f 54/1/31 52/1/31 53/1/31
f 51/1/32 56/1/32 52/1/32
f 57/1/33 59/1/33 58/1/33
f 58/1/34 56/1/34 55/1/34
f 62/1/35 57/1/35 58/1/35
f 62/1/36 55/1/36 63/1/36
f 51/1/37 63/1/37 55/1/37
f 54/1/38 64/1/38 51/1/38
f 66/1/39 54/1/39 53/1/39
f 57/1/40 67/1/40 60/1/40
f 17/1/55 22/1/55 18/1/55
f 29/1/65 21/1/65 17/1/65
f 4/1/126 1/1/126 2/1/126
f 5/1/127 6/1/127 2/1/127
f 7/1/128 10/1/128 9/1/128
f 8/1/129 9/1/129 6/1/129
f 12/1/130 11/1/130 7/1/130
f 13/1/131 12/1/131 8/1/131
f 14/1/132 13/1/132 5/1/132
f 4/1/133 15/1/133 14/1/133
f 16/1/134 15/1/134 4/1/134
f 20/1/135 17/1/135 18/1/135
f 23/1/137 26/1/137 25/1/137
f 21/1/138 24/1/138 25/1/138
f 28/1/139 27/1/139 23/1/139
f 28/1/140 24/1/140 21/1/140
f 20/1/141 31/1/141 30/1/141
f 19/1/142 32/1/142 31/1/142
f 23/1/143 27/1/143 33/1/143
f 34/1/144 35/1/144 36/1/144
f 38/1/145 39/1/145 35/1/145
f 40/1/146 43/1/146 42/1/146
f 41/1/147 42/1/147 39/1/147
f 45/1/148 44/1/148 40/1/148
f 46/1/149 45/1/149 41/1/149
f 34/1/150 47/1/150 46/1/150
f 37/1/151 48/1/151 47/1/151
f 49/1/152 48/1/152 37/1/152
f 43/1/153 40/1/153 44/1/153
f 54/1/154 51/1/154 52/1/154
f 51/1/155 55/1/155 56/1/155
f 57/1/156 60/1/156 59/1/156
f 58/1/157 59/1/157 56/1/157
f 62/1/158 61/1/158 57/1/158
f 62/1/159 58/1/159 55/1/159
f 51/1/160 64/1/160 63/1/160
f 54/1/161 65/1/161 64/1/161
f 66/1/162 65/1/162 54/1/162
f 57/1/163 61/1/163 67/1/163
f 17/1/178 21/1/178 22/1/178
